<?xml version="1.0" standalone="no"?>
<!DOCTYPE svg PUBLIC "-//W3C//DTD SVG 20010904//EN"
 "http://www.w3.org/TR/2001/REC-SVG-20010904/DTD/svg10.dtd">
<svg version="1.0" xmlns="http://www.w3.org/2000/svg"
 width="512.000000pt" height="512.000000pt" viewBox="0 0 512.000000 512.000000"
 preserveAspectRatio="xMidYMid meet">

<g transform="translate(0.000000,512.000000) scale(0.100000,-0.100000)"
fill="#000000" stroke="none">
<path d="M1519 4824 c-367 -66 -665 -341 -770 -709 -22 -76 -23 -101 -27 -461
l-3 -380 -69 -12 c-38 -6 -95 -24 -127 -39 -81 -38 -175 -133 -216 -220 l-32
-68 -3 -960 c-3 -1074 -6 -1029 68 -1143 66 -103 178 -179 299 -202 34 -6 414
-10 1048 -10 l995 0 50 -40 c56 -44 115 -65 159 -55 16 4 59 22 95 41 133 69
224 29 268 -117 23 -77 44 -107 94 -136 46 -27 50 -28 207 -28 148 0 164 2
208 24 55 27 80 60 103 141 42 146 136 185 271 114 80 -43 146 -49 203 -19 48
24 231 211 253 257 27 57 22 112 -17 187 -33 63 -39 92 -37 155 2 48 64 100
151 126 85 25 132 66 150 128 13 49 13 297 -1 347 -17 60 -74 111 -148 131
-79 22 -139 73 -151 127 -10 46 1 91 41 166 35 65 38 125 9 182 -27 51 -204
229 -252 252 -57 27 -119 22 -191 -15 -51 -27 -73 -33 -124 -33 -57 0 -65 3
-98 35 -26 25 -42 54 -57 104 -26 85 -72 141 -132 158 -22 6 -102 12 -176 12
-74 0 -154 -6 -176 -12 -53 -15 -109 -76 -124 -134 -6 -24 -16 -55 -21 -69
-13 -33 -66 -84 -96 -94 l-23 -6 0 150 c0 82 -5 174 -11 203 -38 181 -189 327
-373 359 l-66 11 0 287 c0 157 -5 333 -10 391 -15 155 -56 284 -130 409 -208
349 -616 537 -1011 465z m339 -140 c314 -64 557 -295 645 -613 19 -69 21 -109
25 -438 l4 -363 -166 0 -166 0 0 319 c0 175 -5 343 -10 372 -14 75 -69 185
-121 243 -56 64 -146 121 -227 146 -80 25 -215 27 -293 4 -181 -53 -329 -219
-358 -404 -6 -36 -11 -203 -11 -372 l0 -308 -160 0 -160 0 -2 298 c-3 377 -2
410 23 505 79 309 353 565 660 616 88 14 234 12 317 -5z m2 -492 c87 -43 146
-108 179 -196 20 -54 21 -76 21 -391 l0 -335 -370 0 -371 0 3 343 3 342 28 61
c91 197 312 274 507 176z m910 -1079 c65 -21 142 -89 178 -157 25 -48 27 -61
30 -208 2 -87 0 -158 -5 -158 -4 1 -19 7 -33 15 -34 19 -114 19 -156 -1 -45
-22 -205 -179 -244 -240 -42 -67 -41 -117 6 -208 43 -82 49 -143 19 -194 -20
-32 -77 -66 -167 -97 -55 -19 -102 -68 -117 -122 -14 -49 -14 -287 0 -336 17
-64 67 -109 149 -135 85 -28 136 -69 150 -123 13 -47 6 -76 -36 -160 -40 -77
-44 -137 -14 -187 11 -18 20 -35 20 -37 0 -3 -431 -4 -957 -3 l-958 3 -57 28
c-63 31 -114 84 -150 156 l-23 46 -3 929 c-3 1038 -6 992 67 1084 44 55 91 88
154 108 33 10 253 13 1068 13 936 1 1031 0 1079 -16z m943 -404 c8 -7 21 -39
30 -70 62 -205 248 -282 444 -183 55 28 75 33 90 26 22 -12 182 -172 195 -196
8 -13 1 -35 -27 -90 -99 -195 -20 -384 185 -442 85 -25 85 -25 85 -179 0 -154
0 -153 -85 -180 -134 -42 -216 -134 -227 -255 -6 -67 16 -156 53 -213 17 -25
23 -45 18 -59 -9 -28 -189 -208 -208 -208 -9 0 -42 14 -74 30 -78 40 -151 53
-219 41 -68 -13 -99 -30 -149 -83 -48 -50 -66 -81 -88 -160 -20 -68 -20 -68
-182 -68 -143 0 -152 4 -177 91 -35 117 -117 197 -222 219 -77 16 -181 -6
-248 -52 -41 -29 -67 -18 -155 70 -121 119 -119 114 -75 201 50 101 57 194 21
272 -42 89 -118 149 -225 178 -64 17 -68 26 -68 177 0 153 0 153 85 178 207
59 283 237 187 440 l-37 78 19 26 c20 27 151 157 184 181 15 12 27 9 90 -23
202 -102 374 -27 451 196 26 76 31 78 199 74 87 -1 121 -6 130 -17z"/>
<path d="M1568 2601 c-157 -52 -263 -174 -290 -333 -19 -119 20 -253 100 -340
l41 -44 3 -209 3 -210 29 -53 c87 -156 285 -190 419 -72 78 69 90 112 95 344
l4 198 49 64 c105 139 118 325 32 472 -37 63 -137 148 -202 173 -80 30 -208
35 -283 10z m252 -146 c97 -50 154 -144 154 -255 0 -81 -25 -137 -94 -208
l-50 -51 0 -211 c0 -233 -6 -261 -58 -299 -37 -26 -111 -28 -152 -5 -56 34
-60 52 -60 284 0 116 -4 219 -9 228 -5 9 -32 40 -60 69 -150 155 -81 412 127
469 61 17 144 9 202 -21z"/>
<path d="M3470 2284 c-204 -40 -353 -126 -469 -271 -187 -236 -202 -574 -36
-828 197 -301 594 -407 918 -244 183 93 316 263 368 469 27 108 23 267 -11
375 -71 229 -257 409 -490 475 -73 20 -229 34 -280 24z m271 -161 c264 -91
432 -362 391 -630 -12 -75 -80 -243 -99 -243 -4 0 -24 28 -43 61 -63 110 -195
206 -310 224 -25 4 -54 11 -65 16 -18 7 -18 8 5 8 62 2 153 76 194 159 62 122
-1 295 -131 358 -172 85 -373 -23 -399 -213 -8 -63 14 -144 56 -201 32 -45
121 -102 159 -102 39 0 19 -9 -45 -21 -135 -25 -278 -129 -336 -246 -29 -59
-30 -58 -71 22 -62 124 -79 288 -43 410 59 200 224 362 419 411 74 19 246 12
318 -13z m-106 -173 c59 -37 84 -130 49 -189 -57 -96 -202 -93 -249 6 -61 127
81 257 200 183z m97 -573 c72 -35 140 -110 168 -184 11 -31 19 -61 17 -67 -7
-18 -128 -85 -187 -104 -39 -12 -89 -17 -170 -17 -81 0 -131 5 -170 17 -59 19
-180 86 -187 104 -8 21 37 121 74 163 77 91 155 122 298 118 86 -2 108 -6 157
-30z"/>
</g>
</svg>
