<?xml version="1.0" standalone="no"?>
<!DOCTYPE svg PUBLIC "-//W3C//DTD SVG 20010904//EN"
 "http://www.w3.org/TR/2001/REC-SVG-20010904/DTD/svg10.dtd">
<svg version="1.0" xmlns="http://www.w3.org/2000/svg"
 width="512.000000pt" height="512.000000pt" viewBox="0 0 512.000000 512.000000"
 preserveAspectRatio="xMidYMid meet">

<g transform="translate(0.000000,512.000000) scale(0.100000,-0.100000)"
fill="#000000" stroke="none">
<path d="M2270 4975 c-431 -55 -823 -212 -1172 -472 -126 -94 -326 -288 -431
-418 -290 -359 -476 -804 -528 -1265 -15 -133 -6 -479 16 -620 108 -696 497
-1297 1090 -1683 324 -211 687 -338 1080 -378 132 -13 452 -7 570 11 626 96
1175 411 1567 900 110 138 189 264 278 445 254 513 315 1083 179 1645 -78 317
-222 620 -428 895 -85 112 -308 342 -419 429 -362 286 -805 466 -1264 516
-130 14 -408 11 -538 -5z m652 -619 c371 -79 675 -243 930 -502 120 -121 184
-202 267 -335 288 -462 351 -1064 165 -1579 -187 -523 -613 -940 -1138 -1115
-222 -74 -414 -101 -666 -92 -262 10 -483 64 -715 176 -521 252 -880 714
-1002 1291 -25 115 -27 145 -28 360 0 210 3 247 24 350 67 325 213 620 430
867 247 282 601 489 980 573 150 33 223 39 436 35 166 -3 220 -8 317 -29z"/>
<path d="M2443 3644 c-60 -22 -127 -86 -160 -152 l-28 -57 -3 -287 -3 -288
-278 0 c-317 0 -340 -4 -419 -75 -73 -66 -97 -122 -97 -225 0 -68 5 -93 23
-127 35 -66 78 -110 140 -140 l57 -28 287 -3 287 -4 3 -291 3 -292 31 -55 c36
-64 107 -123 171 -140 115 -33 253 12 324 104 60 78 62 93 66 404 l4 282 274
0 c321 0 352 6 435 90 147 146 109 384 -74 471 l-61 29 -282 0 -281 0 -4 283
c-3 279 -3 283 -29 337 -37 78 -71 114 -141 149 -52 26 -72 31 -132 30 -39 0
-90 -7 -113 -15z"/>
</g>
</svg>
