<?xml version="1.0" standalone="no"?>
<!DOCTYPE svg PUBLIC "-//W3C//DTD SVG 20010904//EN"
 "http://www.w3.org/TR/2001/REC-SVG-20010904/DTD/svg10.dtd">
<svg version="1.0" xmlns="http://www.w3.org/2000/svg"
 width="512.000000pt" height="512.000000pt" viewBox="0 0 512.000000 512.000000"
 preserveAspectRatio="xMidYMid meet">

<g transform="translate(0.000000,512.000000) scale(0.100000,-0.100000)"
fill="#000000" stroke="none">
<path d="M3620 4141 c-280 -62 -489 -190 -681 -421 l-46 -55 -120 -5 c-112 -5
-122 -7 -156 -33 -40 -30 -67 -74 -67 -107 l0 -20 -938 0 c-883 0 -940 -1
-973 -18 -19 -10 -131 -98 -247 -196 -303 -255 -303 -235 0 -491 116 -98 227
-187 247 -197 40 -21 169 -25 202 -7 11 6 41 42 66 81 l45 70 48 -76 c74 -115
109 -114 187 6 l46 70 47 -74 c26 -41 55 -78 65 -82 22 -8 378 -8 401 1 9 3
38 40 65 81 l47 75 46 -71 c25 -39 54 -76 65 -81 12 -7 122 -11 299 -11 l279
0 7 -31 c9 -46 44 -89 90 -110 31 -14 65 -19 143 -19 l102 0 33 -37 c175 -195
268 -271 419 -346 439 -216 960 -124 1298 228 338 352 410 852 188 1290 -140
277 -408 491 -714 572 -135 35 -366 42 -493 14z m414 -136 c365 -70 665 -363
758 -742 31 -126 31 -324 0 -447 -96 -381 -386 -662 -765 -740 -95 -20 -281
-21 -379 -2 -231 45 -443 176 -598 371 -70 89 -113 108 -255 115 l-110 5 -3
57 c-2 48 -7 61 -29 78 -25 19 -39 20 -323 20 l-297 0 -67 104 c-98 153 -119
153 -221 -4 l-64 -100 -138 0 -138 1 -64 100 c-35 55 -73 105 -85 110 -38 18
-70 -4 -117 -80 -24 -39 -46 -71 -49 -71 -3 1 -25 33 -49 71 -76 123 -108 118
-202 -30 l-64 -101 -43 0 c-40 0 -51 8 -233 162 l-191 162 24 18 c22 17 78 18
1071 18 1034 0 1047 0 1067 20 25 25 26 61 1 91 l-19 24 -963 5 -962 5 79 65
78 65 977 5 c1118 6 1016 -4 1021 99 l3 56 110 6 c158 9 179 20 284 151 151
187 388 316 640 348 80 10 219 4 315 -15z"/>
<path d="M4222 3275 c-80 -35 -134 -101 -154 -187 -22 -99 37 -222 131 -270
63 -33 157 -38 219 -13 49 21 110 80 133 130 21 46 25 129 7 187 -15 51 -82
126 -133 149 -49 23 -156 24 -203 4z m148 -128 c32 -16 70 -73 70 -106 0 -38
-35 -89 -74 -107 -72 -35 -154 14 -163 98 -4 37 -1 49 23 77 42 50 93 64 144
38z"/>
<path d="M1077 1552 c-13 -14 -17 -38 -17 -90 0 -40 -4 -72 -10 -72 -5 0 -32
14 -60 30 -59 35 -92 38 -120 10 -41 -41 -23 -85 55 -129 30 -17 55 -33 55
-36 0 -3 -25 -19 -55 -36 -78 -44 -96 -88 -55 -129 28 -28 61 -25 120 10 28
17 55 30 60 30 6 0 10 -33 10 -74 0 -66 3 -77 22 -90 31 -22 64 -20 88 4 16
16 20 33 20 90 0 39 3 70 7 70 3 0 30 -13 60 -30 63 -36 92 -38 121 -7 43 46
25 82 -67 132 l-51 28 59 35 c65 38 87 68 76 101 -18 58 -61 65 -138 21 -30
-16 -57 -30 -60 -30 -4 0 -7 32 -7 70 0 57 -4 74 -20 90 -25 25 -72 26 -93 2z"/>
<path d="M1791 1544 c-16 -21 -21 -41 -21 -91 0 -36 -4 -63 -8 -61 -5 2 -34
16 -65 33 -46 24 -60 28 -84 20 -34 -13 -51 -54 -36 -88 7 -14 37 -40 69 -58
50 -28 55 -34 40 -43 -97 -59 -111 -72 -114 -103 -4 -37 26 -73 60 -73 12 0
45 14 75 30 29 17 55 30 57 30 2 0 6 -32 8 -71 3 -60 8 -74 27 -90 31 -25 66
-24 91 3 16 17 20 35 20 90 0 37 3 68 8 68 4 0 30 -14 57 -30 63 -37 97 -38
124 -4 12 15 21 33 21 41 0 20 -56 73 -104 98 l-38 21 51 27 c50 28 91 69 91
92 0 7 -9 24 -21 39 -27 34 -61 33 -124 -4 -27 -16 -53 -30 -57 -30 -5 0 -8
32 -8 70 0 57 -4 74 -20 90 -29 29 -74 26 -99 -6z"/>
<path d="M2511 1544 c-16 -21 -21 -41 -21 -90 0 -35 -2 -64 -5 -64 -3 0 -29
14 -58 30 -61 34 -83 37 -115 14 -15 -10 -22 -25 -22 -49 0 -36 27 -63 100
-100 32 -16 33 -19 16 -29 -94 -55 -111 -71 -114 -108 -2 -28 2 -40 20 -52 32
-23 54 -20 115 14 29 17 55 30 58 30 3 0 5 -29 5 -64 0 -76 24 -116 70 -116
46 0 70 40 70 116 0 35 2 64 5 64 3 0 29 -13 58 -30 61 -34 83 -37 115 -14 18
12 22 24 20 52 -3 37 -20 53 -114 108 -17 10 -16 13 16 29 73 37 100 64 100
100 0 24 -7 39 -22 49 -32 23 -54 20 -115 -14 -29 -16 -55 -30 -58 -30 -3 0
-5 29 -5 64 0 76 -24 116 -70 116 -19 0 -36 -9 -49 -26z"/>
<path d="M3230 1550 c-16 -16 -20 -33 -20 -90 0 -38 -3 -70 -7 -70 -5 0 -30
14 -58 30 -63 37 -97 38 -124 4 -12 -15 -21 -33 -21 -41 0 -20 56 -73 103 -98
l38 -21 -60 -33 c-75 -43 -94 -78 -64 -119 28 -38 64 -39 127 -3 29 17 56 31
60 31 3 0 6 -31 6 -70 0 -80 19 -110 68 -110 46 0 66 31 70 111 2 38 6 69 8
69 2 0 28 -13 57 -30 30 -16 63 -30 75 -30 34 0 64 36 60 73 -3 31 -17 44
-114 103 -15 9 -10 15 40 43 32 18 62 44 69 58 15 34 -2 75 -36 88 -24 8 -38
4 -84 -20 -31 -17 -60 -31 -64 -33 -3 -2 -8 28 -11 67 -2 50 -9 75 -22 90 -24
27 -70 27 -96 1z"/>
<path d="M3950 1550 c-16 -16 -20 -33 -20 -90 0 -38 -3 -70 -7 -70 -3 0 -30
14 -60 30 -77 44 -120 37 -138 -21 -11 -34 12 -64 76 -100 63 -35 63 -34 -4
-70 -77 -41 -97 -84 -57 -127 28 -30 60 -28 123 8 30 16 57 30 60 30 4 0 7
-31 7 -70 0 -57 4 -74 20 -90 24 -24 57 -26 88 -4 19 13 22 24 22 90 0 41 4
74 10 74 5 0 32 -13 60 -30 59 -35 92 -38 120 -10 41 41 23 85 -55 129 -30 17
-55 33 -55 36 0 3 25 19 55 36 78 44 96 88 55 129 -28 28 -61 25 -120 -10 -28
-16 -55 -30 -60 -30 -6 0 -10 33 -10 73 0 59 -4 77 -18 90 -25 23 -68 21 -92
-3z"/>
</g>
</svg>
