<?xml version="1.0" standalone="no"?>
<!DOCTYPE svg PUBLIC "-//W3C//DTD SVG 20010904//EN"
 "http://www.w3.org/TR/2001/REC-SVG-20010904/DTD/svg10.dtd">
<svg version="1.0" xmlns="http://www.w3.org/2000/svg"
 width="512.000000pt" height="512.000000pt" viewBox="0 0 512.000000 512.000000"
 preserveAspectRatio="xMidYMid meet">

<g transform="translate(0.000000,512.000000) scale(0.100000,-0.100000)"
fill="#000000" stroke="none">
<path d="M618 4377 c-46 -21 -485 -457 -503 -501 -40 -94 28 -196 130 -196 50
0 67 11 175 113 l95 90 5 -1316 c5 -1309 5 -1316 26 -1343 11 -15 33 -37 48
-48 l27 -21 1946 -3 1945 -2 -83 -91 c-102 -110 -119 -135 -119 -177 0 -105
101 -177 195 -138 58 24 489 459 505 509 26 81 19 91 -233 345 -128 129 -244
240 -259 248 -63 33 -162 3 -192 -60 -38 -80 -20 -124 101 -248 l97 -98 -1857
0 -1857 0 0 528 0 527 128 128 128 128 373 -560 c205 -308 383 -569 396 -581
51 -48 142 -44 195 8 19 20 128 282 389 935 200 499 366 905 370 902 3 -4 71
-135 151 -293 127 -252 149 -289 180 -307 34 -19 53 -20 490 -20 413 0 458 2
487 17 103 57 103 199 0 256 -29 15 -74 17 -425 20 l-392 3 -194 387 c-107
213 -205 397 -218 410 -54 50 -144 47 -198 -6 -19 -20 -131 -288 -399 -960
l-373 -933 -354 530 c-351 526 -373 555 -429 561 -73 8 -83 3 -189 -100 -57
-55 -106 -100 -109 -100 -4 0 -7 219 -7 487 l0 486 104 -101 c57 -56 116 -104
130 -108 78 -19 169 32 182 103 15 81 8 92 -234 337 -261 263 -297 287 -374
253z"/>
</g>
</svg>
