<?xml version="1.0" standalone="no"?>
<!DOCTYPE svg PUBLIC "-//W3C//DTD SVG 20010904//EN"
 "http://www.w3.org/TR/2001/REC-SVG-20010904/DTD/svg10.dtd">
<svg version="1.0" xmlns="http://www.w3.org/2000/svg"
 width="512.000000pt" height="512.000000pt" viewBox="0 0 512.000000 512.000000"
 preserveAspectRatio="xMidYMid meet">

<g transform="translate(0.000000,512.000000) scale(0.100000,-0.100000)"
fill="#000000" stroke="none">
<path d="M2060 4790 c-67 -12 -95 -25 -139 -66 -62 -56 -77 -86 -129 -280
l-49 -179 -369 -6 c-207 -3 -382 -10 -399 -16 -225 -76 -327 -295 -243 -520
40 -109 166 -208 280 -222 36 -4 54 -11 55 -21 2 -8 48 -637 103 -1398 108
-1496 102 -1438 169 -1535 68 -100 191 -181 316 -209 48 -10 235 -13 910 -13
785 0 855 1 915 18 173 48 300 158 351 304 16 47 35 274 119 1442 56 762 102
1391 104 1397 3 6 27 14 56 17 65 8 130 40 191 95 174 156 142 481 -58 599
-96 56 -101 57 -497 62 l-370 6 -46 170 c-53 196 -72 238 -134 292 -77 68 -68
66 -606 69 -267 1 -505 -1 -530 -6z m1011 -190 c28 -16 43 -52 82 -198 l35
-132 -628 0 -629 0 25 93 c52 194 57 208 82 227 24 19 43 20 519 20 320 0 501
-4 514 -10z m1082 -560 c54 -37 81 -92 81 -165 0 -75 -29 -131 -87 -168 l-41
-27 -1544 0 -1544 0 -40 22 c-122 69 -124 271 -3 344 l40 24 1551 -3 1550 -2
37 -25z m-283 -567 c0 -10 -45 -633 -99 -1384 -72 -987 -104 -1376 -114 -1402
-23 -53 -80 -110 -144 -143 l-58 -29 -882 -3 c-862 -2 -883 -2 -935 18 -29 11
-74 38 -100 60 -92 79 -77 -39 -188 1497 -55 752 -100 1376 -100 1386 0 16 69
17 1310 17 1241 0 1310 -1 1310 -17z"/>
<path d="M1969 3225 c-60 -19 -140 -91 -170 -152 l-24 -48 0 -1025 0 -1025 21
-46 c52 -113 147 -174 269 -173 87 0 154 32 214 100 75 86 72 28 69 1160 -3
1004 -3 1009 -24 1054 -61 130 -218 199 -355 155z m170 -199 l26 -26 3 -990
c3 -1104 7 -1037 -66 -1067 -47 -19 -102 -5 -128 35 -18 26 -19 71 -22 997 -2
687 0 981 8 1008 22 77 121 100 179 43z"/>
<path d="M2955 3220 c-68 -27 -115 -68 -150 -131 l-30 -54 -3 -1014 c-3 -1138
-6 -1079 69 -1165 61 -69 127 -100 214 -100 118 0 210 57 262 162 l28 57 0
1020 c0 1016 0 1020 -21 1066 -67 144 -230 215 -369 159z m162 -180 c22 -13
35 -31 43 -59 7 -27 10 -343 8 -1008 -3 -1068 1 -997 -67 -1029 -47 -23 -104
-5 -132 39 -19 31 -19 55 -17 1023 3 976 3 992 23 1014 39 43 92 51 142 20z"/>
</g>
</svg>
