<?xml version="1.0" standalone="no"?>
<!DOCTYPE svg PUBLIC "-//W3C//DTD SVG 20010904//EN"
 "http://www.w3.org/TR/2001/REC-SVG-20010904/DTD/svg10.dtd">
<svg version="1.0" xmlns="http://www.w3.org/2000/svg"
 width="512.000000pt" height="512.000000pt" viewBox="0 0 512.000000 512.000000"
 preserveAspectRatio="xMidYMid meet">

<g transform="translate(0.000000,512.000000) scale(0.100000,-0.100000)"
fill="#000000" stroke="none">
<path d="M625 4975 c-232 -62 -384 -205 -471 -440 -18 -47 -19 -104 -22 -1025
-2 -687 0 -986 8 -1013 23 -79 112 -147 195 -147 76 0 160 56 194 130 14 31
16 136 18 983 3 850 5 951 19 980 23 45 63 86 106 108 36 18 86 19 1888 19
1812 0 1852 0 1889 -19 48 -25 95 -78 112 -128 12 -31 14 -354 14 -1873 0
-1771 -1 -1836 -19 -1870 -24 -45 -63 -87 -101 -108 -27 -15 -120 -17 -985
-22 l-956 -5 -49 -26 c-121 -61 -150 -219 -59 -319 68 -75 -9 -70 1066 -70
1078 0 1027 -3 1172 72 159 83 281 238 326 414 20 75 20 118 20 1938 0 1595
-2 1871 -15 1931 -38 182 -170 352 -335 433 -159 78 12 72 -2085 71 -1545 0
-1889 -3 -1930 -14z"/>
<path d="M2765 4057 c-56 -22 -76 -38 -106 -85 -23 -37 -29 -57 -29 -103 0
-71 12 -104 53 -147 64 -67 63 -67 381 -70 l290 -3 -642 -642 c-447 -448 -646
-653 -657 -679 -53 -129 49 -288 186 -288 93 0 73 -18 761 668 l647 645 3
-289 c3 -285 3 -290 27 -331 43 -76 132 -119 215 -106 53 8 126 60 150 108 20
39 21 56 24 593 2 370 -1 566 -8 593 -15 53 -83 124 -135 138 -58 16 -1119 14
-1160 -2z"/>
<path d="M553 1976 c-194 -47 -363 -216 -408 -408 -12 -51 -15 -151 -15 -505
0 -282 4 -461 11 -495 37 -177 177 -337 359 -408 l65 -25 495 0 495 0 65 25
c178 70 308 212 355 390 22 81 21 927 0 1018 -24 99 -70 179 -151 260 -78 78
-170 129 -272 151 -78 16 -930 13 -999 -3z m955 -416 c13 -8 33 -31 45 -50 22
-34 22 -43 25 -427 2 -247 -1 -407 -7 -431 -6 -21 -25 -51 -41 -67 l-31 -30
-427 -3 c-410 -2 -428 -1 -459 17 -70 43 -68 29 -68 491 0 395 1 417 20 448
10 17 37 41 60 52 38 20 56 20 450 18 344 -3 414 -5 433 -18z"/>
</g>
</svg>
