<?xml version="1.0" standalone="no"?>
<!DOCTYPE svg PUBLIC "-//W3C//DTD SVG 20010904//EN"
 "http://www.w3.org/TR/2001/REC-SVG-20010904/DTD/svg10.dtd">
<svg version="1.0" xmlns="http://www.w3.org/2000/svg"
 width="512.000000pt" height="512.000000pt" viewBox="0 0 512.000000 512.000000"
 preserveAspectRatio="xMidYMid meet">

<g transform="translate(0.000000,512.000000) scale(0.100000,-0.100000)"
fill="#000000" stroke="none">
<path d="M2840 4469 c-350 -40 -676 -167 -947 -367 -108 -80 -318 -289 -397
-395 -51 -68 -159 -242 -168 -269 -2 -6 -21 1 -42 16 -57 38 -106 35 -154 -8
l-37 -34 -3 -161 -3 -161 -394 0 c-408 0 -429 -2 -473 -43 -57 -52 -57 -54
-60 -432 -2 -192 -1 -378 3 -412 8 -74 34 -119 90 -150 40 -22 44 -23 438 -23
l397 0 0 -140 c0 -161 10 -198 62 -230 44 -27 88 -25 133 5 20 15 38 25 40 23
1 -2 27 -47 58 -100 505 -865 1606 -1193 2502 -746 569 284 954 813 1050 1444
20 129 20 378 0 526 -117 881 -817 1560 -1707 1657 -111 13 -279 12 -388 0z
m426 -139 c733 -92 1345 -652 1508 -1381 122 -546 -18 -1114 -380 -1541 -53
-63 -74 -75 -74 -43 0 7 -14 55 -30 105 -146 446 -453 733 -915 857 -94 25
-114 26 -325 27 -242 1 -313 -8 -469 -60 -399 -133 -696 -453 -814 -873 -12
-45 -25 -81 -29 -81 -11 0 -113 125 -167 205 -64 93 -141 229 -141 246 0 8
144 158 321 334 176 176 329 337 340 357 23 45 25 108 3 151 -9 18 -164 181
-345 362 l-329 330 53 93 c89 158 176 272 307 402 146 146 266 234 440 324
205 105 360 153 620 190 57 8 351 5 426 -4z m-1286 -1770 c0 -8 -169 -183
-375 -390 l-375 -375 0 152 c0 158 -6 194 -37 209 -10 5 -214 11 -453 14
l-435 5 0 385 0 385 440 5 c242 3 441 7 442 8 44 44 43 39 43 206 l0 161 375
-375 c206 -207 375 -382 375 -390z m1315 -355 c467 -98 794 -427 899 -908 16
-69 16 -80 3 -90 -274 -217 -495 -325 -799 -394 -115 -25 -138 -27 -353 -27
-234 0 -261 3 -460 49 -93 22 -239 77 -350 132 -91 45 -281 168 -344 223 l-34
29 23 97 c95 413 361 717 741 847 142 49 267 67 439 63 92 -2 188 -11 235 -21z"/>
<path d="M2902 3819 c-123 -21 -278 -112 -371 -216 -57 -64 -132 -208 -152
-293 -17 -70 -17 -228 0 -300 7 -30 34 -98 59 -150 76 -157 211 -276 384 -338
66 -23 87 -26 213 -26 126 0 147 3 213 26 107 39 177 83 262 168 130 129 193
281 194 465 0 126 -14 186 -72 305 -77 157 -221 282 -392 341 -74 25 -247 35
-338 18z m241 -134 c249 -53 427 -273 427 -528 -1 -206 -118 -391 -305 -481
-305 -145 -668 27 -749 355 -94 383 243 736 627 654z"/>
</g>
</svg>
