<?xml version="1.0" standalone="no"?>
<!DOCTYPE svg PUBLIC "-//W3C//DTD SVG 20010904//EN"
 "http://www.w3.org/TR/2001/REC-SVG-20010904/DTD/svg10.dtd">
<svg version="1.0" xmlns="http://www.w3.org/2000/svg"
 width="512.000000pt" height="512.000000pt" viewBox="0 0 512.000000 512.000000"
 preserveAspectRatio="xMidYMid meet">

<g transform="translate(0.000000,512.000000) scale(0.100000,-0.100000)"
fill="#000000" stroke="none">
<path d="M1520 4135 c-154 -34 -298 -141 -373 -276 -63 -114 -67 -141 -67
-452 0 -263 1 -282 20 -312 30 -49 67 -69 127 -69 56 -1 89 17 127 68 20 26
21 45 26 294 5 249 6 270 27 307 25 47 74 95 123 121 31 17 67 20 305 24 302
6 301 5 344 81 39 68 21 145 -45 195 l-37 29 -256 2 c-191 1 -273 -2 -321 -12z"/>
<path d="M3945 4138 c-19 -6 -198 -178 -477 -457 l-448 -446 0 345 c0 309 -2
349 -18 380 -52 104 -206 109 -267 8 -19 -32 -20 -51 -20 -453 0 -385 2 -425
19 -475 50 -146 151 -250 295 -303 52 -18 85 -20 424 -25 458 -5 486 -3 540
48 37 34 41 42 45 96 3 50 0 64 -20 93 -48 70 -52 71 -438 71 l-345 0 447 448
c384 385 448 453 457 488 19 72 -14 144 -82 175 -47 21 -68 22 -112 7z"/>
<path d="M1329 2492 c-121 -32 -224 -111 -293 -225 -59 -99 -66 -154 -66 -514
0 -175 4 -345 10 -377 22 -133 117 -272 232 -339 101 -59 167 -67 528 -67 361
0 427 8 528 67 109 63 205 196 231 321 15 70 15 678 0 758 -25 135 -129 278
-247 338 -100 51 -148 56 -517 55 -288 0 -350 -3 -406 -17z m786 -315 c26 -14
48 -37 63 -67 21 -43 22 -52 22 -369 0 -304 -1 -327 -20 -365 -11 -23 -36 -52
-57 -66 l-36 -25 -321 -3 c-177 -2 -336 0 -354 3 -40 7 -101 59 -118 102 -11
25 -14 107 -14 355 0 306 1 324 21 365 13 28 35 52 62 68 l42 25 335 0 c328 0
336 -1 375 -23z"/>
<path d="M3920 2181 c-71 -37 -74 -54 -80 -351 -6 -298 -9 -312 -86 -380 -70
-61 -84 -64 -369 -70 -236 -5 -263 -7 -293 -25 -35 -21 -72 -86 -72 -125 0
-41 39 -108 78 -132 36 -22 43 -23 297 -23 218 1 271 4 325 19 193 53 340 192
401 378 23 70 24 85 24 350 0 265 -1 278 -21 305 -52 70 -133 92 -204 54z"/>
</g>
</svg>
