<?xml version="1.0" standalone="no"?>
<!DOCTYPE svg PUBLIC "-//W3C//DTD SVG 20010904//EN"
 "http://www.w3.org/TR/2001/REC-SVG-20010904/DTD/svg10.dtd">
<svg version="1.0" xmlns="http://www.w3.org/2000/svg"
 width="512.000000pt" height="512.000000pt" viewBox="0 0 512.000000 512.000000"
 preserveAspectRatio="xMidYMid meet">

<g transform="translate(0.000000,512.000000) scale(0.100000,-0.100000)"
fill="#000000" stroke="none">
<path d="M3234 4599 c-47 -13 -72 -49 -102 -140 -26 -81 -28 -84 -64 -92 -34
-8 -41 -5 -104 42 -76 58 -115 69 -167 47 -54 -22 -235 -163 -258 -199 -25
-42 -24 -72 7 -158 26 -72 26 -74 9 -106 l-18 -33 -90 0 c-97 0 -142 -14 -166
-52 -20 -32 -101 -278 -101 -305 0 -53 28 -91 99 -139 69 -46 71 -48 71 -90 0
-41 -2 -43 -65 -84 -70 -44 -105 -88 -105 -133 0 -16 20 -91 45 -167 61 -187
91 -211 239 -196 60 6 63 5 84 -24 27 -37 27 -38 -3 -122 -29 -80 -31 -108
-10 -149 19 -36 247 -209 278 -210 67 -3 85 4 167 66 51 39 57 41 87 31 43
-15 47 -21 68 -95 36 -134 58 -146 260 -146 204 0 220 9 260 150 20 70 25 76
68 91 30 11 35 8 95 -39 68 -53 116 -69 167 -55 17 5 82 48 145 96 99 75 117
93 130 130 14 42 14 47 -16 130 l-31 87 24 32 c24 31 24 31 101 26 93 -7 142
10 172 59 21 35 100 274 100 303 0 42 -35 88 -102 132 -67 45 -68 47 -68 89 0
43 2 45 64 86 65 43 106 96 106 136 0 11 -20 83 -45 159 -60 188 -69 197 -208
201 -101 4 -103 4 -124 34 l-21 30 25 61 c31 76 35 143 10 180 -25 39 -224
184 -269 197 -52 15 -80 5 -155 -52 -57 -44 -69 -49 -98 -44 -42 8 -48 17 -70
100 -22 81 -53 122 -103 136 -45 12 -275 12 -318 -1z m280 -241 c12 -43 29
-86 38 -97 16 -19 190 -81 227 -81 10 0 51 25 89 55 39 30 74 55 77 55 6 0 72
-46 152 -105 2 -1 -11 -36 -27 -79 -17 -42 -30 -88 -30 -100 0 -27 114 -192
144 -208 12 -7 53 -9 107 -5 l88 6 30 -92 c17 -50 27 -93 22 -96 -4 -4 -37
-25 -73 -49 -36 -23 -70 -54 -76 -68 -7 -14 -12 -69 -12 -123 0 -116 5 -126
105 -191 53 -34 64 -46 59 -62 -3 -11 -16 -50 -28 -86 l-23 -67 -99 -5 c-54
-3 -104 -9 -111 -13 -26 -17 -133 -177 -133 -199 0 -13 13 -57 29 -98 l30 -75
-27 -23 c-15 -12 -50 -39 -79 -58 l-51 -36 -64 51 c-35 28 -74 54 -87 58 -36
9 -228 -55 -245 -82 -8 -12 -19 -42 -26 -66 -6 -24 -16 -59 -21 -76 l-11 -33
-94 0 c-67 0 -96 4 -99 12 -2 7 -13 45 -25 85 -11 40 -27 79 -35 87 -18 18
-191 76 -225 76 -15 0 -52 -22 -94 -55 -38 -30 -71 -55 -73 -55 -2 0 -38 25
-79 56 -58 42 -74 59 -69 72 33 81 55 146 55 161 0 20 -99 165 -132 194 -16
14 -39 17 -117 17 l-97 0 -25 83 c-13 45 -24 85 -24 89 0 4 31 29 70 55 38 26
75 59 82 73 17 33 17 197 0 230 -11 21 -43 47 -136 111 l-21 14 28 90 28 90
82 -4 c48 -2 94 2 110 8 31 13 152 174 152 202 0 10 -14 55 -30 101 -17 45
-27 85 -23 88 22 19 141 100 147 100 4 0 35 -23 69 -50 34 -28 72 -53 83 -56
12 -3 67 9 123 27 115 36 132 51 151 132 25 104 17 98 126 95 l97 -3 21 -77z"/>
<path d="M3256 3905 c-188 -52 -343 -207 -390 -391 -81 -315 139 -636 463
-676 254 -32 498 123 583 370 30 88 32 240 4 322 -82 243 -282 392 -524 389
-48 0 -109 -7 -136 -14z m280 -176 c71 -27 157 -106 194 -180 98 -193 18 -425
-178 -517 -50 -24 -69 -27 -162 -27 -97 0 -109 2 -164 30 -76 39 -157 127
-187 202 -17 43 -23 80 -23 143 -1 75 3 93 30 150 89 189 294 272 490 199z"/>
<path d="M1399 3882 c-40 -20 -278 -191 -323 -231 -33 -30 -56 -78 -56 -120 0
-16 20 -82 44 -146 l45 -117 -47 -64 -46 -65 -135 1 c-75 1 -145 -2 -156 -6
-11 -4 -35 -21 -53 -38 -28 -26 -42 -60 -97 -228 -36 -109 -65 -208 -65 -221
0 -12 9 -41 19 -64 16 -35 38 -54 130 -115 l111 -73 0 -82 0 -82 -106 -72
c-176 -120 -179 -130 -90 -403 59 -183 70 -207 101 -235 47 -41 66 -44 212
-39 l125 5 47 -65 c25 -35 45 -70 43 -78 -1 -7 -21 -62 -43 -121 -44 -117 -48
-168 -15 -218 20 -30 293 -236 354 -266 71 -35 113 -23 234 72 56 43 107 79
113 79 6 0 42 -11 81 -23 l69 -24 33 -118 c37 -133 57 -167 112 -195 35 -18
59 -20 242 -20 290 1 302 8 360 215 l33 118 70 24 c38 12 74 23 80 23 6 0 57
-36 113 -79 121 -95 163 -107 234 -72 61 31 334 235 354 266 33 50 29 101 -15
218 -22 59 -42 114 -43 121 -2 8 18 43 43 78 l47 65 125 -5 c146 -5 165 -2
212 39 31 27 42 53 101 233 72 218 74 238 34 304 -25 41 -163 132 -200 132
-42 0 -80 -35 -80 -74 0 -43 19 -67 84 -107 31 -18 56 -38 56 -43 0 -6 -24
-82 -52 -169 l-53 -158 -131 7 c-72 4 -144 4 -158 0 -36 -9 -206 -237 -206
-275 0 -14 20 -79 45 -144 25 -66 45 -124 45 -130 0 -11 -261 -207 -275 -207
-3 0 -54 38 -113 85 -59 47 -117 88 -129 91 -28 8 -295 -81 -315 -104 -8 -9
-27 -62 -42 -117 -15 -55 -32 -115 -37 -132 l-11 -33 -173 0 -174 0 -17 57
c-46 166 -57 200 -69 220 -17 26 -284 118 -318 109 -12 -3 -70 -44 -129 -91
-59 -47 -110 -85 -114 -85 -14 0 -274 196 -274 206 0 7 20 65 45 131 25 65 45
130 45 144 0 38 -170 266 -206 275 -14 4 -86 4 -158 0 l-131 -7 -55 165 c-30
91 -52 167 -50 169 3 2 55 37 115 77 61 40 116 79 123 88 15 19 17 314 2 341
-5 10 -60 51 -122 91 -62 40 -115 75 -118 77 -2 2 20 78 50 169 l55 166 136
-7 c75 -4 147 -4 159 0 31 10 200 241 200 274 0 14 -20 79 -45 144 -25 66 -45
124 -45 131 0 10 260 206 274 206 4 0 55 -38 114 -85 59 -47 117 -88 129 -91
33 -9 299 82 318 109 24 35 19 82 -11 106 -36 28 -64 26 -169 -9 -49 -16 -94
-30 -101 -30 -6 0 -51 32 -100 71 -128 103 -173 118 -245 81z"/>
<path d="M1924 2994 c-146 -78 -275 -216 -344 -368 -49 -108 -64 -179 -64
-316 -1 -101 4 -140 22 -205 70 -246 269 -455 507 -531 98 -32 288 -44 387
-25 128 25 272 97 368 184 98 89 210 260 210 321 0 38 -41 76 -83 76 -41 0
-64 -24 -103 -105 -43 -89 -167 -210 -264 -257 -199 -96 -411 -88 -596 23 -65
39 -167 144 -206 210 -102 174 -108 399 -15 588 42 86 157 207 237 250 68 37
90 62 90 107 0 23 -8 39 -26 53 -35 28 -61 26 -120 -5z"/>
</g>
</svg>
